<?xml version="1.0" standalone="no"?>
<!DOCTYPE svg PUBLIC "-//W3C//DTD SVG 20010904//EN"
 "http://www.w3.org/TR/2001/REC-SVG-20010904/DTD/svg10.dtd">
<svg version="1.0" xmlns="http://www.w3.org/2000/svg"
 width="958.000000pt" height="958.000000pt" viewBox="0 0 958.000000 958.000000"
 preserveAspectRatio="xMidYMid meet">
<metadata>
Created by potrace 1.11, written by Peter Selinger 2001-2013
</metadata>
<g transform="translate(0.000000,958.000000) scale(0.100000,-0.100000)"
fill="#000000" stroke="none">
<path d="M3745 8052 c-24 -31 -220 -229 -255 -257 -14 -11 -54 -43 -90 -70
-36 -28 -71 -56 -78 -62 -7 -7 -16 -13 -20 -13 -4 0 -23 -14 -42 -30 -19 -16
-38 -30 -42 -30 -5 0 -16 -8 -26 -17 -10 -10 -47 -38 -82 -62 -70 -48 -338
-248 -356 -265 -6 -6 -39 -36 -74 -66 -79 -69 -146 -139 -201 -210 -24 -30
-46 -57 -49 -60 -23 -22 -98 -183 -115 -245 -7 -30 -17 -60 -20 -65 -4 -6 -8
-54 -10 -108 -2 -53 -4 -100 -4 -104 -1 -7 -53 -4 -141 8 -19 3 -51 7 -70 9
-45 6 -79 12 -110 20 -14 3 -34 7 -45 9 -97 15 -134 22 -137 26 -2 1 -12 4
-23 5 -11 1 -40 6 -65 10 -59 10 -330 12 -400 3 -91 -13 -230 -43 -265 -58
-22 -9 -69 -24 -72 -22 -2 1 -18 -5 -37 -13 -18 -8 -36 -11 -40 -8 -3 4 -6 2
-6 -4 0 -6 -12 -14 -27 -18 -59 -15 -303 -148 -303 -166 0 -4 -9 -10 -19 -14
-27 -8 -187 -168 -237 -235 -108 -147 -223 -371 -171 -334 6 5 26 9 42 9 17 0
33 5 37 10 5 6 8 5 8 -3 0 -7 5 -10 10 -7 6 4 18 1 27 -7 12 -9 15 -9 9 0 -6
11 9 17 35 14 4 -1 24 -2 45 -3 22 -1 47 -7 58 -12 13 -6 16 -6 11 2 -5 8 2
10 22 5 15 -4 38 -8 51 -8 12 0 22 -4 22 -9 0 -4 4 -6 9 -3 13 9 181 -26 175
-36 -3 -4 0 -8 5 -8 6 0 11 5 11 10 0 7 6 7 19 0 11 -5 29 -10 41 -10 13 0 19
-4 14 -11 -5 -8 -1 -8 13 0 11 5 24 6 29 2 5 -5 31 -14 59 -20 27 -7 53 -18
57 -24 5 -8 8 -8 8 -1 0 10 47 4 100 -14 8 -2 26 -6 40 -8 34 -6 65 -12 65
-14 0 -1 11 -3 25 -5 14 -1 45 -6 70 -9 76 -12 134 -13 148 -3 7 6 12 6 12 -1
0 -10 45 -8 125 7 22 4 50 7 62 6 13 -1 19 3 16 8 -4 6 0 8 10 4 9 -3 19 -2
22 4 4 5 10 7 15 4 5 -3 11 -1 15 5 3 5 13 10 21 10 19 0 107 41 116 54 4 6
10 7 14 4 3 -4 13 0 21 8 12 11 18 12 29 3 12 -10 13 -8 7 6 -5 15 -3 17 11
12 10 -4 15 -3 11 3 -3 6 1 10 9 10 9 0 16 4 16 8 0 4 37 26 83 47 45 22 84
42 87 45 5 5 30 10 62 13 9 1 15 4 12 8 -2 4 3 9 11 13 8 3 15 0 15 -7 0 -9 2
-9 8 1 5 7 23 14 40 16 17 3 36 7 41 10 5 4 12 2 16 -4 3 -5 12 -10 18 -10 8
0 8 3 -1 9 -10 6 -9 10 7 14 16 4 25 -2 37 -25 8 -16 13 -36 10 -43 -3 -8 -1
-15 4 -17 4 -2 10 -14 12 -28 1 -14 6 -27 10 -30 4 -3 8 -20 10 -38 1 -18 5
-32 8 -32 3 0 11 -19 17 -42 6 -24 17 -56 24 -73 7 -16 13 -32 14 -35 0 -3 6
-15 13 -27 7 -13 9 -23 5 -23 -4 0 -2 -5 5 -12 7 -7 12 -20 12 -30 0 -10 4
-18 8 -18 4 0 8 -10 9 -21 1 -12 10 -30 19 -40 9 -11 14 -19 11 -19 -6 0 63
-140 101 -205 68 -119 118 -201 124 -210 31 -39 57 -88 52 -97 -4 -6 -2 -8 4
-4 11 6 52 -43 52 -64 0 -6 5 -8 10 -5 6 3 10 -1 10 -9 0 -8 8 -23 18 -33 10
-10 29 -34 42 -53 13 -19 27 -37 30 -40 3 -3 25 -30 48 -60 48 -61 91 -114
110 -135 6 -7 12 -19 12 -25 0 -6 5 -8 10 -5 6 3 10 1 10 -5 0 -6 10 -21 23
-34 12 -13 42 -47 67 -76 25 -29 66 -76 91 -104 26 -28 62 -68 80 -90 19 -21
60 -66 92 -99 31 -33 57 -63 57 -67 0 -4 11 -13 25 -20 14 -7 25 -20 25 -28 0
-9 3 -12 7 -9 3 4 15 -5 25 -20 10 -16 18 -23 18 -18 0 6 9 -3 20 -20 11 -16
20 -27 20 -23 0 7 24 -14 147 -129 25 -24 48 -43 52 -43 3 0 29 -21 56 -45 28
-25 53 -45 57 -45 4 0 21 -13 38 -30 16 -16 30 -26 30 -22 0 4 4 2 8 -4 10
-15 249 -174 262 -174 5 0 10 -4 10 -10 0 -5 7 -10 15 -10 8 0 15 -5 15 -11 0
-5 4 -8 9 -5 11 7 53 -29 44 -38 -4 -4 0 -4 9 -1 8 3 22 0 29 -7 8 -7 23 -15
34 -16 11 -2 32 -13 48 -24 15 -11 35 -21 43 -22 8 -1 23 -9 33 -17 9 -8 23
-15 31 -17 7 -2 29 -10 49 -19 42 -19 46 -20 67 -22 9 0 14 -7 11 -14 -4 -10
2 -13 19 -9 15 3 24 0 24 -9 0 -7 3 -10 6 -7 6 7 93 -20 111 -34 7 -5 17 -7
23 -3 5 3 10 1 10 -4 0 -6 3 -10 8 -10 4 1 9 0 12 -1 3 -1 12 -3 20 -5 8 -1
39 -10 68 -19 120 -37 148 -45 175 -50 15 -2 35 -7 45 -10 9 -3 28 -7 42 -10
14 -3 39 -8 55 -11 17 -4 38 -7 48 -8 9 -1 17 -4 17 -7 0 -3 10 -6 23 -7 57
-1 68 -3 61 -14 -5 -8 -1 -8 13 0 11 6 23 7 27 4 4 -4 19 -8 34 -9 15 -1 50
-5 77 -8 83 -11 137 -17 195 -21 30 -2 57 -4 60 -5 3 -2 25 -3 50 -4 l45 -1 1
-125 c1 -69 5 -168 9 -220 9 -132 11 -334 3 -401 -10 -78 -54 -209 -70 -209
-5 0 -8 -6 -8 -13 0 -8 -18 -33 -40 -57 -22 -24 -40 -46 -40 -49 0 -3 29 -6
65 -6 36 0 65 3 65 6 0 4 12 7 28 8 68 2 91 5 87 12 -3 4 8 9 23 11 39 7 56
12 62 19 3 3 19 13 37 21 23 12 34 13 43 4 8 -8 10 -7 5 4 -3 10 5 22 25 33
16 10 30 15 30 10 0 -4 7 3 16 15 9 14 22 21 31 18 8 -3 11 -2 8 4 -8 13 41
43 56 34 8 -4 9 -3 5 5 -4 7 14 32 45 64 29 28 49 45 44 37 -5 -9 -5 -12 1 -7
5 5 9 14 9 20 1 7 6 11 13 10 6 -2 9 4 6 12 -4 10 0 15 11 15 9 0 14 4 11 8
-3 4 10 25 29 45 18 20 36 46 40 57 4 12 10 19 13 15 4 -3 12 9 18 27 8 24 16
32 30 30 14 -2 16 -1 5 6 -11 8 -10 14 4 36 9 14 22 23 28 19 6 -3 7 -1 3 6
-6 10 57 155 74 171 5 4 67 158 74 185 2 6 8 23 14 38 7 16 12 35 12 43 0 8 4
12 10 9 5 -3 7 0 4 9 -4 12 3 15 35 14 23 0 41 -5 41 -12 0 -8 2 -8 8 1 7 11
79 16 95 6 4 -2 3 -12 -3 -22 -5 -10 -6 -21 -2 -25 3 -4 7 -21 8 -39 6 -130 6
-165 0 -175 -4 -7 -3 -12 2 -12 5 0 8 -12 6 -28 -1 -15 -5 -54 -8 -87 -8 -78
-18 -118 -47 -185 -24 -58 -29 -64 -69 -109 -53 -58 -54 -60 -26 -55 17 3 26
0 26 -8 0 -8 3 -9 8 -3 4 6 34 11 67 13 33 1 85 10 115 19 30 9 57 17 60 17 3
1 11 5 18 9 6 5 12 6 12 3 0 -6 106 49 126 65 6 5 16 3 24 -4 10 -9 11 -9 5 1
-8 14 28 56 39 45 3 -4 6 -1 6 6 0 8 6 11 16 7 8 -3 13 -2 11 2 -6 9 49 63 57
55 3 -4 6 1 6 9 0 21 24 29 41 15 11 -10 11 -9 0 5 -12 15 -9 22 22 53 19 19
33 35 31 35 -4 0 30 42 58 71 9 9 13 21 10 25 -4 4 1 4 11 1 11 -4 16 -3 12 3
-8 14 34 82 46 74 5 -3 7 -9 4 -14 -3 -5 -1 -11 4 -14 11 -7 9 13 -2 31 -10
16 11 56 24 48 5 -4 9 -3 8 2 -4 17 14 63 24 63 6 0 7 3 4 7 -4 3 1 12 11 20
10 9 11 12 2 7 -10 -5 -9 0 4 14 11 12 15 22 10 22 -5 0 -3 4 4 9 7 4 15 14
17 22 14 60 15 61 90 74 17 3 46 8 65 11 19 4 41 7 48 7 6 0 12 3 12 7 0 3 8
6 18 7 24 2 62 10 100 22 17 5 32 7 32 5 0 -3 10 2 22 10 29 21 39 20 31 -1
-3 -12 1 -10 12 5 11 15 24 22 36 19 12 -3 17 -1 12 6 -4 6 0 8 10 4 10 -4 20
0 26 11 5 9 11 15 13 13 4 -6 80 19 95 31 7 5 18 6 24 2 8 -4 9 -3 5 4 -4 7
-1 12 9 12 10 0 13 -5 9 -12 -4 -8 -3 -10 2 -5 5 5 9 13 9 19 0 5 23 22 50 36
28 15 61 35 74 44 13 9 29 14 34 11 6 -3 7 -1 3 6 -4 6 0 14 11 18 10 4 24 13
31 20 8 7 18 11 23 7 5 -3 8 -2 7 3 -2 5 31 42 72 83 42 41 91 95 110 120 19
25 37 47 41 50 3 3 9 14 13 26 3 11 14 29 24 40 10 10 26 37 36 59 10 22 27
58 37 81 10 22 19 46 19 52 0 7 5 12 12 12 6 0 9 3 5 6 -3 3 5 33 18 67 13 34
23 65 23 70 1 27 15 88 22 92 4 3 6 15 2 27 -3 11 -1 19 4 16 5 -3 10 13 12
36 1 22 4 50 6 61 3 11 5 33 5 48 1 19 5 26 13 21 7 -5 8 -3 2 7 -10 17 -6 49
9 68 8 10 8 13 1 8 -8 -4 -10 16 -9 67 1 40 4 77 6 82 9 19 -5 361 -15 371 -3
3 0 13 7 21 7 10 8 13 1 9 -8 -4 -14 8 -18 35 -4 23 -14 63 -23 90 -8 26 -13
55 -9 63 3 9 2 13 -4 10 -9 -6 -14 8 -11 28 0 4 -3 7 -7 7 -8 0 -38 74 -31 77
2 1 -5 9 -16 17 -11 9 -15 16 -10 16 6 0 6 3 0 8 -11 7 -40 50 -46 67 -1 6
-40 47 -86 93 -51 51 -81 88 -76 95 5 8 2 8 -9 -1 -12 -10 -18 -9 -28 3 -7 8
-38 29 -69 47 -31 17 -59 36 -62 41 -3 5 -8 8 -10 6 -2 -1 -20 5 -39 14 -41
19 -198 77 -221 82 -9 2 -33 8 -52 13 -20 6 -38 7 -41 4 -3 -3 -6 -1 -6 4 0 5
-10 11 -22 12 -25 2 -63 10 -63 12 0 1 -16 3 -35 5 -19 3 -51 7 -70 10 -19 4
-55 8 -80 10 -82 7 -106 11 -118 19 -7 4 -12 2 -12 -4 0 -6 -5 -8 -11 -4 -12
7 -143 14 -329 17 -69 2 -131 6 -139 11 -9 6 -12 5 -8 -1 5 -7 -26 -11 -91
-13 -149 -3 -258 -7 -362 -15 -52 -4 -124 -9 -160 -11 -36 -2 -87 -6 -115 -8
-27 -2 -88 -7 -135 -10 -47 -4 -98 -9 -115 -11 -16 -3 -64 -7 -105 -10 -41 -2
-93 -7 -115 -9 -22 -3 -74 -8 -115 -11 -41 -3 -91 -8 -110 -10 -19 -2 -66 -6
-105 -10 -38 -3 -90 -7 -115 -10 -25 -2 -81 -7 -125 -10 -44 -4 -98 -8 -120
-11 -22 -2 -76 -6 -120 -9 -44 -2 -107 -7 -140 -10 -272 -24 -864 -35 -1080
-20 -157 11 -220 16 -250 20 -51 6 -118 15 -165 20 -25 3 -63 9 -85 15 -22 5
-41 9 -42 10 -2 0 -4 0 -5 1 -2 1 -14 3 -28 5 -14 2 -36 6 -50 9 -14 2 -38 7
-55 11 -16 3 -37 8 -45 11 -22 9 -28 10 -51 12 -12 1 -17 5 -13 13 4 7 3 8 -4
4 -14 -9 -63 4 -57 14 3 5 -3 6 -12 4 -24 -5 -219 71 -216 84 1 5 -7 8 -18 5
-12 -3 -24 -2 -28 3 -3 5 -26 18 -50 29 -24 11 -50 25 -56 32 -7 7 -19 14 -26
15 -13 3 -20 7 -53 36 -8 6 -18 12 -21 12 -7 0 -72 47 -93 68 -7 6 -18 12 -23
12 -5 0 -9 7 -9 17 0 9 -3 14 -6 10 -6 -5 -103 86 -132 124 -10 14 -9 17 8 22
13 3 18 1 13 -6 -4 -8 -2 -8 9 0 8 7 18 10 21 6 4 -3 7 -1 7 7 0 10 4 10 17
-1 11 -10 14 -10 9 -1 -4 7 -1 12 8 12 9 0 18 0 21 1 11 2 134 48 167 63 21 9
42 16 48 16 5 0 10 3 10 8 0 4 15 13 33 21 17 8 40 21 50 29 9 8 17 12 17 8 0
-4 11 5 25 19 14 14 29 25 33 25 4 0 25 16 47 35 22 19 44 35 49 35 5 0 7 2 4
5 -3 3 18 29 46 57 28 28 51 54 51 57 0 4 6 13 13 21 7 8 28 36 46 62 18 26
37 44 41 40 5 -4 5 -2 2 4 -7 12 60 156 74 162 4 2 5 10 2 18 -3 8 0 14 6 14
6 0 10 3 10 8 -1 4 -1 9 1 12 1 3 4 16 6 30 2 13 10 28 17 32 6 4 8 8 3 8 -6
0 -1 7 10 16 10 8 13 12 5 8 -11 -6 -13 -3 -7 12 4 10 9 26 11 35 9 46 30 105
40 111 6 5 5 8 -3 8 -7 0 -10 5 -7 10 7 11 15 52 18 83 1 9 4 17 7 17 3 0 6
24 7 53 2 28 5 70 8 92 3 22 6 67 7 100 1 33 7 63 13 67 6 5 5 8 -4 8 -10 0
-11 3 -2 13 6 8 8 16 5 19 -9 10 -6 163 3 161 6 -1 10 4 10 12 0 7 -5 11 -12
9 -8 -3 -11 14 -11 56 1 33 -1 60 -4 60 -3 0 -6 19 -7 43 -1 47 -10 142 -13
142 -3 0 -9 38 -12 68 -1 16 -6 31 -10 33 -4 3 -5 11 -2 19 3 7 2 20 -3 28 -6
12 -12 9 -28 -11z"/>
<path d="M3840 7840 c-9 -6 -10 -10 -3 -10 6 0 15 5 18 10 8 12 4 12 -15 0z"/>
<path d="M3836 7662 c-3 -5 1 -9 9 -9 8 0 12 4 9 9 -3 4 -7 8 -9 8 -2 0 -6 -4
-9 -8z"/>
<path d="M3830 7161 c0 -6 4 -13 10 -16 6 -3 7 1 4 9 -7 18 -14 21 -14 7z"/>
<path d="M3830 7101 c0 -6 4 -13 10 -16 6 -3 7 1 4 9 -7 18 -14 21 -14 7z"/>
<path d="M3726 6742 c-3 -5 1 -9 9 -9 8 0 12 4 9 9 -3 4 -7 8 -9 8 -2 0 -6 -4
-9 -8z"/>
<path d="M3650 6561 c0 -6 4 -13 10 -16 6 -3 7 1 4 9 -7 18 -14 21 -14 7z"/>
<path d="M3366 6202 c-3 -5 1 -9 9 -9 8 0 12 4 9 9 -3 4 -7 8 -9 8 -2 0 -6 -4
-9 -8z"/>
<path d="M3115 6040 c3 -5 8 -10 11 -10 2 0 4 5 4 10 0 6 -5 10 -11 10 -5 0
-7 -4 -4 -10z"/>
<path d="M2070 5639 c0 -5 5 -7 10 -4 6 3 10 8 10 11 0 2 -4 4 -10 4 -5 0 -10
-5 -10 -11z"/>
<path d="M1596 5422 c-3 -5 1 -9 9 -9 8 0 12 4 9 9 -3 4 -7 8 -9 8 -2 0 -6 -4
-9 -8z"/>
<path d="M9430 4300 c0 -5 5 -10 11 -10 5 0 7 5 4 10 -3 6 -8 10 -11 10 -2 0
-4 -4 -4 -10z"/>
<path d="M9415 4140 c3 -5 8 -10 11 -10 2 0 4 5 4 10 0 6 -5 10 -11 10 -5 0
-7 -4 -4 -10z"/>
<path d="M9396 3747 c3 -10 9 -15 12 -12 3 3 0 11 -7 18 -10 9 -11 8 -5 -6z"/>
<path d="M9247 3459 c7 -7 15 -10 18 -7 3 3 -2 9 -12 12 -14 6 -15 5 -6 -5z"/>
<path d="M9166 3322 c-3 -5 1 -9 9 -9 8 0 12 4 9 9 -3 4 -7 8 -9 8 -2 0 -6 -4
-9 -8z"/>
<path d="M8893 2995 c0 -8 4 -12 9 -9 5 3 6 10 3 15 -9 13 -12 11 -12 -6z"/>
<path d="M8770 2920 c0 -5 5 -10 11 -10 5 0 7 5 4 10 -3 6 -8 10 -11 10 -2 0
-4 -4 -4 -10z"/>
<path d="M8546 2822 c-3 -5 1 -9 9 -9 8 0 12 4 9 9 -3 4 -7 8 -9 8 -2 0 -6 -4
-9 -8z"/>
<path d="M6020 2620 c-9 -6 -10 -10 -3 -10 6 0 15 5 18 10 8 12 4 12 -15 0z"/>
<path d="M8010 2586 c0 -2 7 -7 16 -10 8 -3 12 -2 9 4 -6 10 -25 14 -25 6z"/>
<path d="M7867 2339 c7 -7 15 -10 18 -7 3 3 -2 9 -12 12 -14 6 -15 5 -6 -5z"/>
<path d="M6895 2280 c3 -5 8 -10 11 -10 2 0 4 5 4 10 0 6 -5 10 -11 10 -5 0
-7 -4 -4 -10z"/>
<path d="M7815 2281 c-3 -5 -2 -12 3 -15 5 -3 9 1 9 9 0 17 -3 19 -12 6z"/>
<path d="M6866 2218 c3 -5 10 -6 15 -3 13 9 11 12 -6 12 -8 0 -12 -4 -9 -9z"/>
<path d="M7741 2216 c-9 -11 -9 -16 1 -22 7 -4 10 -4 6 1 -4 4 -3 14 3 22 6 7
9 13 6 13 -2 0 -10 -6 -16 -14z"/>
<path d="M7670 2116 c0 -2 8 -10 18 -17 15 -13 16 -12 3 4 -13 16 -21 21 -21
13z"/>
<path d="M7336 1918 c3 -4 11 -5 19 -1 21 7 19 12 -4 10 -11 0 -18 -5 -15 -9z"/>
<path d="M6715 1911 c-3 -5 -2 -12 3 -15 5 -3 9 1 9 9 0 17 -3 19 -12 6z"/>
<path d="M6675 1860 c3 -5 8 -10 11 -10 2 0 4 5 4 10 0 6 -5 10 -11 10 -5 0
-7 -4 -4 -10z"/>
<path d="M6115 1561 c-3 -5 -2 -12 3 -15 5 -3 9 1 9 9 0 17 -3 19 -12 6z"/>
</g>
</svg>
